<?xml version="1.0" encoding="utf-8"?>
<!-- Generator: Adobe Illustrator 20.1.0, SVG Export Plug-In . SVG Version: 6.00 Build 0)  -->
<svg version="1.1" id="Layer_1" xmlns="http://www.w3.org/2000/svg" xmlns:xlink="http://www.w3.org/1999/xlink" x="0px" y="0px"
	 viewBox="0 0 4096 4096" style="enable-background:new 0 0 4096 4096;" xml:space="preserve">
<style type="text/css">
	.st0{fill:#231F20;}
	.st1{display:none;}
	.st2{display:inline;fill:#231F20;}
	.st3{fill:none;stroke:#231F20;stroke-miterlimit:10;}
</style>
<g>
	<path class="st0" d="M3765.1,1937.2c0,0,1.1,1.2,3.3,3.6c1.1,1.2,2.4,2.8,3.9,4.6c0.8,0.9,1.5,2,2.4,3.1c0.4,0.6,0.9,1.1,1.3,1.8
		c0.4,0.6,0.9,1.3,1.3,1.9c3.6,5.3,7.7,12.3,11.3,21.3c3.6,9,6.5,20,7.6,32.8c1,12.8,0,27.6-4.8,43.1c-4.7,15.5-13.4,31.6-26.8,45.9
		c-0.8,0.9-1.7,1.7-2.6,2.6l-1.3,1.3l-0.7,0.7c-0.2,0.2-0.8,0.7-0.9,0.8c-1.7,1.5-3.3,3.1-5.1,4.7c-2,1.6-4,3.3-6.1,5
		c-2.1,1.5-4.1,3.1-6.3,4.6c-8.6,5.9-18.2,11.2-28.6,15.4c-20.9,8.5-45.4,12.8-71.2,10.4c-1.6-0.2-3.2-0.3-4.9-0.5
		c-1.6-0.2-3.2-0.5-4.9-0.7l-2.4-0.4c-0.8-0.1-1.6-0.3-2.4-0.5c-1.6-0.3-3.3-0.7-4.9-1c-1.6-0.4-3.3-0.8-4.9-1.2l-2.5-0.6
		c-0.8-0.2-1.6-0.5-2.4-0.7c-1.6-0.5-3.3-1-4.9-1.5c-1.6-0.6-3.2-1.1-4.9-1.7l-2.4-0.9l-2.4-1c-1.6-0.7-3.2-1.3-4.8-2
		c-3.2-1.5-6.4-2.9-9.5-4.7c-6.3-3.3-12.5-7.2-18.4-11.4c-1.5-1.1-3-2.2-4.4-3.3c-1.5-1.1-2.9-2.3-4.3-3.5c-2.9-2.3-5.6-4.9-8.4-7.5
		c-1.3-1.3-2.7-2.7-4-4l-1-1c-0.5-0.5-0.3-0.2-1.4-1.5l-1.7-1.8c-1.1-1.2-2.2-2.4-3.3-3.7l-0.8-0.9c-0.3-0.3-0.6-0.8-0.9-1.1
		l-1.9-2.3c-1.2-1.6-2.5-3.1-3.8-4.7c-1.1-1.5-2.2-3.1-3.4-4.6l-1.7-2.3l-0.8-1.2l-0.8-1.2c-1.1-1.6-2.1-3.2-3.2-4.9
		c-0.5-0.8-1.1-1.6-1.6-2.5l-1.5-2.5c-1-1.7-2-3.4-2.9-5.1c-1-1.7-1.8-3.5-2.7-5.2c-0.9-1.8-1.9-3.5-2.7-5.3
		c-13.7-28.8-20.9-62.6-18.6-97.7c0.2-4.4,0.8-8.8,1.2-13.2c0.3-2.2,0.7-4.4,1-6.6l0.5-3.3l0.7-3.3c0.5-2.2,0.9-4.4,1.4-6.6
		c0.6-2.2,1.1-4.4,1.7-6.6c0.5-2.2,1.2-4.4,1.9-6.6c0.7-2.2,1.3-4.4,2.1-6.6c0.8-2.2,1.6-4.3,2.4-6.5l0.6-1.6l0.7-1.6l1.3-3.2
		c1.7-4.3,3.8-8.5,5.9-12.8c1.1-2.1,2.2-4.2,3.3-6.3l1.7-3.1l1.8-3.1c1.2-2,2.5-4.1,3.7-6.1c1.3-2,2.7-4,4-6
		c5.5-7.9,11.6-15.6,18.3-22.7c3.3-3.7,6.9-7,10.4-10.5c1.8-1.6,3.6-3.2,5.4-4.8l2.3-2.1l1.2-1c0.4-0.3,0.8-0.7,1.3-1.1
		c2-1.6,4.1-3.2,6.1-4.9c2-1.6,4.1-3.3,6.1-4.6c4-2.8,7.9-5.8,12.1-8.4c2.1-1.3,4.2-2.7,6.3-4c2.1-1.3,4.3-2.5,6.5-3.7l3.3-1.9
		l1.6-0.9l1.7-0.9c2.2-1.1,4.5-2.3,6.7-3.4c36.1-17.9,78.1-27.4,121.4-26c1.4,0,2.7,0.1,4.1,0.2l4.1,0.3l4.1,0.3l2,0.2l2,0.2
		c2.7,0.3,5.4,0.7,8.1,1l2,0.3l2,0.3l4.1,0.7l4.1,0.7l2,0.4l2,0.5c2.7,0.6,5.4,1.3,8.1,1.9c2.7,0.6,5.3,1.5,8,2.2l4,1.2
		c1.3,0.4,2.7,0.8,4,1.3c2.6,0.9,5.3,1.9,7.9,2.8l2,0.7c0.7,0.2,1.3,0.5,1.9,0.8l3.9,1.6l3.9,1.6l1.9,0.8l1.9,0.9
		c2.5,1.2,5.1,2.5,7.6,3.7l1.9,0.9l1.9,1l3.7,2l3.7,2.1l1.9,1l1.8,1.1c2.4,1.5,4.8,3,7.3,4.5l1.8,1.1l1.8,1.2l3.5,2.4
		c18.9,12.9,36.1,28.4,51.4,45.8l1.4,1.6c1.9,2.3,1.2,1.4,1.9,2.3l2.3,2.8c1.5,1.9,3.1,3.8,4.6,5.6c0.4,0.5,0.7,0.9,1.2,1.5l1.4,1.8
		l2.7,3.6c1.8,2.4,3.6,4.9,5.4,7.3c1.7,2.4,3.2,4.8,4.7,7.1c1.6,2.4,3.1,4.8,4.7,7.2c1.4,2.5,2.9,4.9,4.4,7.4l2.2,3.7l1.1,1.9l1,1.9
		c11,20.2,19.8,41.8,26.2,64.4l1.2,4.2c0.4,1.4,0.7,2.8,1.1,4.3c0.7,2.9,1.4,5.7,2,8.6l0.5,2.1c0.2,0.7,0.3,1.4,0.4,2.2l0.8,4.3
		c0.5,2.9,1.1,5.8,1.6,8.7c0.4,2.9,0.8,5.9,1.2,8.8c0.4,2.9,0.9,5.9,1.1,8.8c0.5,5.9,1.2,11.8,1.3,17.8c0.1,3,0.2,6,0.4,9
		c0,3,0,6,0,9c0.1,6-0.4,12-0.7,18c-0.1,3-0.5,6-0.8,9c-0.3,3-0.6,6-0.9,9c-0.4,3-0.9,6-1.3,9c-0.5,3-0.9,6-1.5,9
		c-4.5,23.9-11.7,47.5-21.7,70.1c-10.1,22.6-23,44.2-38.4,64.1c-2,2.5-4,4.9-6,7.3c-2,2.4-4,4.9-6.1,7.2c-4.3,4.7-8.4,9.5-13,13.8
		c-2.2,2.2-4.5,4.5-6.7,6.7c-2.3,2.1-4.7,4.3-7.1,6.4l-3.5,3.2c-0.9,0.8-0.5,0.5-2.4,2.1l-1.6,1.3c-2.1,1.7-4.2,3.5-6.4,5.2
		l-1.6,1.3c-0.5,0.4-1.1,0.9-1.8,1.4l-3.9,3c-2.6,2-5.3,4-7.9,6c-2.6,1.8-5.1,3.6-7.7,5.4l-3.9,2.7c-1.3,0.9-2.6,1.7-4,2.6
		c-2.7,1.7-5.3,3.4-8,5.1c-2.7,1.7-5.4,3.2-8.2,4.8c-5.4,3.3-11.1,6.1-16.7,9.1l-2.1,1.1l-2.2,1l-4.3,2l-4.3,2
		c-1.4,0.7-2.9,1.4-4.4,2c-5.9,2.5-11.8,5.1-17.8,7.2c-12,4.6-24.4,8.4-36.9,11.6c-3.1,0.8-6.3,1.5-9.4,2.3c-1.6,0.4-3.2,0.7-4.7,1
		l-4.8,0.9c-6.3,1.4-12.8,2.2-19.2,3.2c-3.2,0.5-6.5,0.8-9.7,1.2l-4.9,0.6c-1.6,0.2-3.2,0.3-4.9,0.4c-3.2,0.2-6.5,0.5-9.7,0.7
		c-3.3,0.1-6.5,0.2-9.8,0.4c-1.6,0-3.3,0.1-4.9,0.1l-4.9,0c-3.3,0-6.5,0-9.8-0.1c-6.5-0.3-13.1-0.5-19.6-1.1l-4.9-0.4l-2.4-0.2
		l-2.4-0.3c-3.2-0.4-6.5-0.8-9.7-1.2c-1.6-0.2-3.2-0.4-4.9-0.7l-4.8-0.8c-3.2-0.5-6.5-1-9.7-1.7c-3.2-0.6-6.4-1.3-9.6-1.9
		c-3.2-0.7-6.4-1.5-9.6-2.2l-4.8-1.1c-1.6-0.4-3.2-0.8-4.7-1.3c-3.2-0.9-6.3-1.7-9.5-2.6c-3.1-1-6.3-1.9-9.4-2.9l-4.7-1.5l-4.6-1.6
		c-3.1-1.1-6.2-2.2-9.3-3.3c-3.1-1.2-6.1-2.4-9.2-3.6c-3.1-1.2-6.1-2.5-9.1-3.8c-3-1.3-6-2.6-9-4c-5.9-2.8-11.9-5.5-17.7-8.6
		c-2.9-1.5-5.9-3-8.7-4.6c-2.9-1.6-5.7-3.2-8.6-4.8l-2.1-1.2c-0.6-0.3-2.5-1.5-2.6-1.5l-3.8-2.3c-2.5-1.5-5.1-3.1-7.6-4.6l-3.8-2.3
		l-4.1-2.6c-2.8-1.8-5.5-3.5-8.3-5.3c-5.6-3.6-10.7-7.1-15.9-10.7c-2.6-1.8-5.2-3.5-7.8-5.4l-7.6-5.5l-7.6-5.5l-7.5-5.6
		c-20-15-39.3-30.6-58.2-46.2c-37.9-31.2-74.3-62.7-112.2-90.6l-1.8-1.3c-0.7-0.5-0.3-0.2-1.3-1l-3.8-2.7l-7.5-5.4l-7.6-5.4
		l-1.9-1.3c-0.6-0.5-1.3-0.9-1.9-1.3l-3.6-2.4c-4.8-3.2-9.6-6.5-14.5-9.7c-1.2-0.8-2.4-1.6-3.6-2.4l-3.8-2.4l-7.5-4.8l-7.6-4.8
		c-1.3-0.8-2.5-1.6-3.8-2.4l-3.8-2.3c-5.1-3.1-10.3-6.2-15.4-9.2c-1.3-0.8-2.6-1.6-3.9-2.3l-3.9-2.2l-7.8-4.4l-7.8-4.4
		c-1.3-0.7-2.6-1.5-3.9-2.2l-4-2.1c-5.3-2.8-10.6-5.7-16-8.5c-2.6-1.4-5.3-2.8-8.1-4.2l-8.1-4.1c-10.8-5.6-21.8-10.7-32.7-16
		c-22.1-10.2-44.5-20.1-67.4-29.2c-45.6-18.5-92.7-34.4-140.6-48.6c-6-1.7-12-3.4-18.1-5.2l-9-2.6l-9.1-2.5
		c-6.1-1.6-12.1-3.3-18.2-4.9c-6.1-1.5-12.2-3.1-18.3-4.6l-9.2-2.3l-9.2-2.2c-6.1-1.5-12.3-2.9-18.4-4.4c-6.2-1.4-12.4-2.8-18.5-4.2
		l-9.3-2.1l-9.3-2c-99.3-21.2-201.3-35.7-304.3-46.3c-51.2-5.2-102.9-9.1-154.6-11.7c-25.9-1.3-51.8-2.2-77.7-2.9l-19.4-0.4
		l-19.4-0.3l-19.4-0.2l-19.3-0.1l-19.7,0.1l-19.3,0.2l-19.4,0.3l-19.4,0.4c-25.9,0.6-51.8,1.6-77.7,2.9
		c-51.7,2.6-103.3,6.5-154.7,11.7c-102.9,10.6-205,25.2-304.3,46.3l-9.3,2l-9.3,2.1c-6.2,1.4-12.4,2.8-18.5,4.2
		c-6.1,1.5-12.3,2.9-18.4,4.4l-9.2,2.2l-9.2,2.3c-6.1,1.5-12.2,3.1-18.3,4.6c-6.1,1.6-12.1,3.3-18.2,4.9l-9.1,2.5l-9,2.6
		c-6,1.7-12,3.4-18.1,5.2c-48,14.3-95.1,30.2-140.6,48.6c-22.9,9.1-45.2,19-67.4,29.2c-11,5.3-22,10.4-32.7,16l-8.1,4.1
		c-2.7,1.4-5.4,2.7-8.1,4.2c-5.3,2.8-10.6,5.7-16,8.5l-4,2.1c-1.3,0.7-2.6,1.5-3.9,2.2l-7.8,4.4l-7.8,4.4l-3.9,2.2
		c-1.3,0.7-2.6,1.5-3.9,2.3c-5.1,3.1-10.3,6.2-15.4,9.2l-3.8,2.3c-1.3,0.8-2.5,1.6-3.8,2.4l-7.6,4.8l-7.5,4.8l-3.8,2.4
		c-1.3,0.8-2.5,1.6-3.7,2.5c-4.9,3.3-9.9,6.6-14.8,9.9c-5,3.2-9.7,6.8-14.6,10.2l-7.2,5.1l-3.6,2.6c-0.9,0.6-0.8,0.6-1.5,1.1
		l-1.9,1.4l-7.4,5.5l-3.7,2.8l-1.8,1.4l-1.7,1.3c-4.6,3.6-9.2,7.1-13.8,10.7c-4.7,3.7-9.3,7.4-14,11.2c-4.7,3.8-9.3,7.6-13.9,11.4
		c-18.6,15.3-37.2,30.9-56.1,46.5c-37.8,31.2-77.2,62.3-120.5,88.9c-2.7,1.6-5.4,3.3-8.2,4.9l-4.1,2.5c-0.1,0.1-2.1,1.3-2.6,1.5
		l-1.9,1.1c-2.6,1.4-5.2,2.9-7.7,4.3c-0.6,0.4-1.3,0.7-2.1,1.1l-2.3,1.2l-4.6,2.4c-6.2,3.3-12,5.9-18,8.8c-3,1.4-6,2.6-9,4
		c-3,1.3-6,2.6-9.1,3.8c-3.1,1.2-6.1,2.4-9.2,3.6c-3.1,1.1-6.2,2.2-9.3,3.3l-4.6,1.6l-4.7,1.5c-3.1,1-6.3,1.9-9.4,2.9
		c-3.2,0.9-6.3,1.7-9.5,2.6c-1.6,0.4-3.2,0.9-4.7,1.3l-4.8,1.1c-3.2,0.7-6.4,1.5-9.6,2.2c-3.2,0.6-6.4,1.3-9.6,1.9
		c-3.2,0.7-6.4,1.1-9.7,1.7l-4.8,0.8c-1.6,0.3-3.2,0.5-4.9,0.7c-3.3,0.4-6.5,0.8-9.7,1.2l-2.4,0.3l-2.4,0.2l-4.9,0.4
		c-6.5,0.6-13,0.8-19.6,1.1c-3.3,0.1-6.5,0.1-9.8,0.1l-4.9,0c-1.6,0-3.3-0.1-4.9-0.1c-3.3-0.1-6.5-0.2-9.8-0.4
		c-3.3-0.2-6.5-0.5-9.7-0.7c-1.6-0.1-3.2-0.2-4.9-0.4l-4.9-0.6c-3.2-0.4-6.5-0.7-9.7-1.2c-6.4-1-12.9-1.9-19.2-3.2l-4.8-0.9
		c-1.6-0.3-3.2-0.6-4.7-1c-3.1-0.8-6.3-1.5-9.4-2.3c-12.5-3.3-24.9-7-36.9-11.6c-6-2.2-11.9-4.7-17.8-7.2c-1.5-0.6-2.9-1.3-4.4-2
		l-4.3-2l-4.3-2l-2.2-1l-2.1-1.1c-5.6-3-11.3-5.8-16.7-9.1c-2.7-1.6-5.5-3.1-8.2-4.8c-2.7-1.7-5.3-3.4-8-5.1c-1.3-0.9-2.7-1.7-4-2.6
		l-3.9-2.7c-2.6-1.8-5.1-3.6-7.7-5.4c-2.5-1.9-5-3.8-7.5-5.6c-2.5-1.9-5-3.7-7.4-5.7c-2.4-2-4.8-3.9-7.2-5.9l-1.8-1.5
		c-2.3-2-1.5-1.3-2.4-2.1l-3-2.7c-2-1.8-4.1-3.7-6.1-5.5c-2.4-2.4-4.8-4.8-7.2-7.1l-3.6-3.6c-1.3-1.2-2.2-2.4-3.3-3.5
		c-2.1-2.3-4.2-4.7-6.4-7c-2.2-2.3-4.1-4.8-6.1-7.2c-2-2.4-4-4.9-6-7.3c-15.4-19.9-28.3-41.6-38.4-64.1
		c-10.1-22.6-17.2-46.3-21.7-70.1c-0.6-3-1-6-1.5-9c-0.4-3-0.9-6-1.3-9c-0.3-3-0.6-6-0.9-9c-0.3-3-0.6-6-0.8-9c-0.3-6-0.7-12-0.7-18
		c0-3,0-6,0-9c0.1-3,0.2-6,0.4-9c0.1-6,0.8-11.9,1.3-17.8c0.2-3,0.7-5.9,1.1-8.8c0.4-2.9,0.8-5.9,1.2-8.8c0.5-2.9,1.1-5.8,1.6-8.7
		l0.8-4.3c0.1-0.7,0.3-1.4,0.4-2.2l0.5-2.1c0.7-2.9,1.4-5.7,2-8.6c0.4-1.4,0.7-2.9,1.1-4.3l1.2-4.2c6.4-22.6,15.2-44.2,26.2-64.4
		l1-1.9l1.1-1.9l2.2-3.7c1.5-2.5,2.9-4.9,4.4-7.4c3.1-4.8,6.2-9.6,9.4-14.3c1.7-2.3,3.3-4.6,5-6.9l2.5-3.4c0.8-1.1,1.7-2.3,2.6-3.4
		c1.8-2.2,3.5-4.4,5.3-6.6l2.7-3.3c0.8-0.9,0.2-0.3,2-2.4l1.2-1.3c1.6-1.8,3.2-3.6,4.8-5.4c0.4-0.5,0.8-0.9,1.3-1.4l1.6-1.7l3.3-3.4
		l3.3-3.3l1.7-1.6l1.6-1.5c2.1-1.9,4.3-3.9,6.4-5.8l1.6-1.5l1.7-1.4l3.3-2.8l3.3-2.8l1.7-1.4l1.7-1.3c2.3-1.7,4.6-3.5,6.8-5.2
		l1.7-1.3l1.8-1.2l3.5-2.4l3.5-2.4l1.8-1.2l1.8-1.1c2.4-1.5,4.8-3,7.3-4.5l1.8-1.1l1.9-1l3.7-2.1l3.7-2l1.9-1l1.9-0.9
		c2.5-1.2,5.1-2.5,7.6-3.7l1.9-0.9l1.9-0.8l3.9-1.6c5.2-2.2,10.4-4.1,15.7-5.9c21.2-7,43.1-10.5,64.7-11.2
		c43.2-1.4,85.1,8.1,121.1,25.9c18,8.9,34.6,19.8,49.5,32.1c1.9,1.5,3.6,3.2,5.4,4.7l2.7,2.4l1.3,1.2c-0.2-0.1,1.7,1.5,1.9,1.7
		c1.5,1.4,2.9,2.9,4.4,4.3l1.1,1.1c0.3,0.3,0.8,0.8,1.3,1.3l2.7,2.9l2.7,2.9l1.3,1.5c0.4,0.5,0.8,0.9,1.2,1.4
		c1.6,1.9,3.1,3.7,4.7,5.6c0.8,0.9,1.5,1.9,2.2,2.9l2.2,2.9c1.5,1.9,2.9,3.8,4.2,5.8c1.3,2,2.7,4,4,5.9c1.3,2,2.5,4.1,3.7,6.1l1.8,3
		l1.7,3.1c1.1,2.1,2.3,4.1,3.3,6.2c2,4.2,4.1,8.4,5.9,12.7l1.3,3.2l0.7,1.6l0.6,1.6c0.8,2.2,1.6,4.3,2.4,6.5
		c0.8,2.2,1.4,4.4,2.1,6.5c0.7,2.2,1.4,4.3,1.9,6.6c0.6,2.2,1.1,4.4,1.7,6.6c0.5,2.2,0.9,4.4,1.4,6.6l0.7,3.3l0.5,3.3
		c0.3,2.2,0.7,4.4,1,6.6c0.5,4.4,1,8.8,1.2,13.2c0.6,8.7,0.5,17.4,0,25.9c-0.4,4.3-0.6,8.5-1.3,12.7c-0.3,2.1-0.5,4.2-0.9,6.3
		c-0.4,2.1-0.8,4.1-1.1,6.2c-0.3,2.1-0.8,4.1-1.3,6.1c-0.5,2-0.9,4-1.4,6c-0.6,2-1.1,4-1.7,5.9l-0.9,2.9l-1,2.9
		c-0.7,1.9-1.3,3.9-2,5.8c-0.7,1.9-1.5,3.8-2.2,5.6c-1.4,3.8-3.2,7.4-4.8,11c-0.8,1.8-1.8,3.6-2.6,5.3c-0.9,1.8-1.8,3.5-2.7,5.2
		c-1,1.7-2,3.4-2.9,5.1l-1.5,2.5c-0.5,0.8-1,1.6-1.6,2.5c-1.1,1.6-2.1,3.2-3.2,4.9l-0.8,1.2l-0.8,1.2l-1.7,2.3
		c-1.1,1.5-2.2,3.1-3.4,4.6c-1.2,1.5-2.4,3-3.5,4.4c-2.3,3-4.8,5.7-7.3,8.5l-1.9,2.1c-1,1.1-0.8,0.8-1.2,1.3l-0.9,0.9
		c-1.2,1.2-2.3,2.3-3.5,3.5c-1.5,1.4-2.9,2.7-4.4,4.1c-0.7,0.7-1.5,1.4-2.2,2l-2.1,1.8c-1.4,1.2-2.8,2.4-4.3,3.5
		c-1.5,1.1-2.9,2.2-4.4,3.3c-6,4.2-12.1,8.1-18.4,11.4c-3.1,1.7-6.3,3.2-9.5,4.7c-1.6,0.7-3.2,1.3-4.8,2l-2.4,1l-2.4,0.9
		c-1.6,0.6-3.2,1.1-4.9,1.7c-1.6,0.5-3.3,1-4.9,1.5c-0.8,0.2-1.6,0.5-2.4,0.7l-2.5,0.6c-1.6,0.4-3.3,0.8-4.9,1.2
		c-1.6,0.3-3.3,0.7-4.9,1c-0.8,0.2-1.6,0.3-2.4,0.5l-2.4,0.4c-1.6,0.2-3.2,0.5-4.8,0.7c-1.6,0.2-3.2,0.3-4.8,0.5
		c-25.7,2.4-50.2-1.9-71-10.3c-10.4-4.2-20-9.5-28.6-15.4c-2.1-1.5-4.2-3.1-6.3-4.6c-2-1.6-3.9-3.2-5.9-4.8c-1.9-1.6-3.7-3.3-5.5-5
		c-0.1-0.1-0.7-0.6-0.8-0.8l-0.6-0.6l-1.2-1.2l-1.2-1.2c-0.4-0.4-0.8-0.8-1.2-1.3c-0.9-0.9-1.7-1.9-2.6-2.8l-1.3-1.4l-1.1-1.4
		c-0.8-0.9-1.5-1.8-2.2-2.8c-0.8-0.9-1.4-1.9-2.1-2.8c-0.7-0.9-1.4-1.9-2-2.8c-0.6-1-1.3-1.9-1.9-2.9c-1.3-1.9-2.4-3.9-3.5-5.8
		c-4.4-7.7-7.8-15.6-10.1-23.3c-4.8-15.5-5.8-30.2-4.8-43c1-12.8,4-23.8,7.5-32.8c3.6-9,7.6-16,11.2-21.3c0.4-0.7,0.9-1.3,1.3-1.9
		c0.4-0.6,0.9-1.2,1.3-1.8c0.9-1.1,1.6-2.2,2.4-3.1c1.6-1.9,2.8-3.4,3.9-4.6c2.2-2.4,3.3-3.6,3.3-3.6s-1,1.3-2.8,4
		c-0.9,1.3-2,3.1-3.3,5.1c-0.6,1-1.2,2.2-1.9,3.4c-0.3,0.6-0.7,1.2-1.1,1.9c-0.3,0.7-0.7,1.3-1,2.1c-2.9,5.6-5.9,12.8-8.2,21.7
		c-2.3,8.9-3.8,19.5-3.3,31.3c0.5,11.8,3.1,24.9,8.9,37.9c2.9,6.5,6.5,13,11.1,19.1c1.2,1.5,2.3,3.1,3.6,4.5
		c0.6,0.7,1.2,1.5,1.9,2.2c0.6,0.7,1.3,1.4,2,2.2c0.7,0.7,1.3,1.5,2,2.2c0.7,0.7,1.4,1.4,2.1,2.1l1.1,1.1l1.1,0.9
		c0.7,0.6,1.4,1.3,2.2,1.9c0.3,0.3,0.8,0.7,1.2,1l1.3,1.1l1.3,1.1l0.7,0.5c0.3,0.2,0.1,0,0.5,0.3c1.7,1.2,3.5,2.5,5.2,3.7
		c1.8,1.1,3.6,2.3,5.5,3.5c1.9,1.1,3.8,2.2,5.7,3.2c7.8,4.1,16.2,7.5,25.1,10c17.8,5.1,37.8,6.2,57.7,2.1
		c19.9-4,39.4-13.5,55.5-27.9c1-0.9,2-1.8,3-2.8c1-0.9,1.9-1.9,2.9-2.9l1.4-1.5c0.5-0.5,0.8-1,1.3-1.4c0.8-0.9,1.6-1.9,2.5-2.8
		c1-1.3,2-2.5,3.1-3.8l0.8-1c0.1-0.1,0.9-1.1,0.4-0.5l1.3-1.8c1.7-2.3,3.4-4.6,4.9-7.1c6.3-9.7,11.6-20.2,15.5-31.4
		c0.9-2.8,2-5.6,2.7-8.5c0.4-1.4,0.8-2.9,1.2-4.3c0.3-1.5,0.7-2.9,1-4.4l0.5-2.2l0.4-2.2c0.3-1.5,0.5-3,0.8-4.5
		c0.2-1.5,0.4-3,0.6-4.5c0.2-1.5,0.4-3,0.5-4.5c0.1-1.5,0.2-3,0.4-4.6c0.1-1.5,0.1-3.1,0.2-4.6c0.2-3.1,0-6.1,0-9.2
		c-0.3-6.2-0.8-12.3-1.9-18.5c-0.4-3.1-1.2-6.1-1.8-9.2c-0.4-1.5-0.8-3-1.2-4.6l-0.6-2.3l-0.7-2.2c-0.5-1.5-0.9-3-1.4-4.5
		c-0.5-1.5-1.1-3-1.6-4.4c-0.5-1.5-1.1-2.9-1.8-4.4c-0.6-1.4-1.2-2.9-1.9-4.4c-0.7-1.4-1.4-2.9-2.1-4.3l-0.5-1.1l-0.6-1l-1.1-2.1
		c-1.4-2.8-3.2-5.5-4.8-8.2c-0.9-1.3-1.8-2.6-2.7-4l-1.3-2l-1.5-1.9c-1-1.3-1.9-2.6-2.9-3.8c-1-1.2-2.1-2.5-3.1-3.7
		c-1-1.3-2.1-2.4-3.2-3.6l-1.6-1.8c-0.5-0.6-1.1-1.2-1.7-1.7c-1.2-1.1-2.3-2.3-3.5-3.4c-0.3-0.3-0.6-0.6-0.9-0.8l-0.8-0.7l-1.6-1.4
		l-1.6-1.4c-0.3-0.2-0.5-0.5-0.9-0.8l-1.2-1c-1.6-1.3-3.2-2.6-4.8-3.9c-0.6-0.5,0.5,0.5-0.4-0.2l-1.1-0.8l-2.1-1.5
		c-1.4-1-2.8-2.1-4.2-3c-11.4-7.7-23.8-14.2-36.9-19.1c-26.1-9.9-55.1-13.5-83.7-9.9c-0.9,0.1-1.8,0.2-2.7,0.4l-2.7,0.4l-2.7,0.4
		l-1.3,0.2l-1.3,0.3c-1.8,0.4-3.5,0.7-5.3,1.1l-1.3,0.3l-1.3,0.3l-2.6,0.7l-2.6,0.6l-1.3,0.3l-1.3,0.4c-1.7,0.5-3.5,1-5.2,1.5
		l-1.3,0.4l-1.3,0.4l-2.6,0.8l-2.6,0.8l-1.3,0.4c-0.4,0.1-0.9,0.3-1.3,0.5c-13.7,4.9-27.3,10.8-39.9,18.9l-2.4,1.5l-1.2,0.7
		l-1.1,0.8c-1.5,1.1-3.1,2.2-4.6,3.3l-1.2,0.8l-1.1,0.9l-2.2,1.8l-2.2,1.8l-1.1,0.9l-1.1,1c-1.4,1.3-2.8,2.5-4.2,3.8l-1.1,1
		l-0.9,0.9l-1.8,1.8l-1.8,1.8l-0.9,0.9c-0.3,0.3-0.8,0.9-1.2,1.3c-1.6,1.8-3.2,3.6-4.8,5.4l-1.2,1.3c1-1.2-0.3,0.3-0.3,0.4l-1.9,2.4
		c-1.3,1.6-2.6,3.1-3.8,4.7c-0.7,0.8-1.3,1.6-1.9,2.4l-1.8,2.5c-1.2,1.6-2.4,3.3-3.6,4.9c-2.3,3.4-4.5,6.8-6.7,10.3
		c-1,1.8-2.1,3.5-3.1,5.3l-1.6,2.7l-0.8,1.3l-0.7,1.4c-7.8,14.5-14.2,30-18.7,46.1l-0.9,3c-0.3,1-0.5,2-0.7,3.1
		c-0.5,2-1,4.1-1.5,6.2l-0.4,1.5c-0.1,0.5-0.2,1-0.3,1.6l-0.6,3.1c-0.4,2.1-0.8,4.2-1.2,6.3c-0.3,2.1-0.6,4.2-0.9,6.3
		c-0.3,2.1-0.7,4.2-0.8,6.3c-0.3,4.3-0.9,8.5-0.9,12.8c-0.1,2.1-0.2,4.3-0.3,6.4c0,2.2,0,4.3,0,6.5c-0.1,4.3,0.3,8.6,0.5,13
		c0.1,2.2,0.3,4.3,0.6,6.5c0.2,2.2,0.4,4.3,0.7,6.5c0.3,2.2,0.7,4.3,1,6.5c0.3,2.2,0.6,4.3,1.1,6.5c3.3,17.2,8.4,34.2,15.6,50.4
		c7.3,16.2,16.5,31.7,27.5,46c1.4,1.7,2.9,3.5,4.3,5.2c1.5,1.7,2.8,3.6,4.4,5.2c3,3.3,6.2,7,9,9.6l4.3,4.4c2,1.8,4,3.6,6,5.4l3,2.7
		c0.1,0.1,1.9,1.7,0.7,0.6l1.4,1.1c1.8,1.5,3.7,3,5.5,4.5c1.8,1.6,3.7,3,5.6,4.4c1.9,1.4,3.8,2.9,5.7,4.3c2,1.4,3.9,2.7,5.9,4.1
		l2.9,2c1,0.7,2,1.3,3,1.9c2,1.3,4,2.6,6,3.8c2,1.3,4.1,2.4,6.2,3.6c4.1,2.5,8.4,4.6,12.6,6.8l1.6,0.8l1.6,0.8l3.2,1.5l3.2,1.5
		c1.1,0.5,2.2,1,3.3,1.5c4.4,1.8,8.8,3.8,13.3,5.4c9,3.5,18.2,6.2,27.5,8.7c37.4,9.6,77.7,10.6,117.3,3.2c2.5-0.5,5-1,7.4-1.5
		c2.5-0.5,4.9-1.2,7.4-1.7l3.7-0.9c1.2-0.3,2.5-0.7,3.7-1c2.5-0.7,4.9-1.3,7.4-2c2.4-0.8,4.9-1.5,7.3-2.3l3.7-1.2l3.6-1.3
		c2.4-0.9,4.9-1.7,7.3-2.6c2.4-0.9,4.8-1.9,7.2-2.8c2.4-0.9,4.8-1.9,7.2-3c2.4-1,4.8-2,7.1-3.1c4.6-2.2,9.6-4.5,13.8-6.7l3.3-1.7
		l1.6-0.8c0.5-0.2,1.2-0.6,1.8-1c2.6-1.4,5.2-2.9,7.7-4.3l1.9-1.1c0.8-0.4,0,0,1.2-0.7l3.5-2.1l7.1-4.3
		c37.6-23.1,73.8-51.5,110.7-81.9c18.4-15.2,37.1-30.9,56.3-46.6c4.8-3.9,9.7-7.9,14.5-11.8c4.9-3.9,9.8-7.8,14.8-11.8
		c5-3.9,10.2-7.9,15.3-11.9l1.9-1.5l1.9-1.4l3.7-2.8l7.4-5.5l1.9-1.4c0.5-0.4,1.9-1.4,2.2-1.6l3.9-2.8l7.9-5.6
		c5.3-3.7,10.5-7.5,15.8-11.1c5.4-3.6,10.7-7.2,16.1-10.8c1.3-0.9,2.7-1.8,4-2.7l4.1-2.6l8.2-5.2l8.2-5.2c1.4-0.9,2.7-1.7,4.1-2.6
		l4.2-2.5c5.5-3.3,11.1-6.7,16.7-10c1.4-0.8,2.8-1.7,4.2-2.5l4.2-2.4l8.5-4.8l8.5-4.8c1.4-0.8,2.8-1.6,4.2-2.4l4.3-2.3
		c5.7-3.1,11.4-6.1,17.2-9.2c2.9-1.6,5.8-3,8.7-4.5l8.7-4.4c11.6-6,23.4-11.5,35.1-17.1c23.6-10.9,47.5-21.5,71.8-31.1
		c48.5-19.6,98.2-36.4,148.6-51.4c6.3-1.8,12.6-3.6,19-5.4l9.5-2.7l9.5-2.6c6.4-1.7,12.7-3.4,19.1-5.1c6.4-1.6,12.8-3.2,19.1-4.9
		l9.6-2.4l9.6-2.3c6.4-1.5,12.8-3.1,19.2-4.6c6.4-1.4,12.9-2.9,19.3-4.3l9.7-2.2l9.7-2c25.8-5.6,51.7-10.5,77.7-15.2
		c13-2.3,26-4.6,39.1-6.7c13-2.2,26.1-4.2,39.2-6.2c26.2-3.9,52.4-7.5,78.6-10.8l9.9-1.2l9.9-1.2c6.6-0.8,13.2-1.5,19.8-2.3
		c6.5-0.7,13-1.4,19.5-2.2l10-1.1l9.9-1c52.9-5.4,106-9.4,159.2-12c26.6-1.3,53.2-2.3,79.9-3l20-0.4l20-0.3l20.1-0.2l19.7-0.1
		l20.1,0.1l20,0.2l20,0.3l20,0.4c26.6,0.7,53.3,1.6,79.9,3c53.2,2.6,106.3,6.6,159.3,12c105.3,10.9,210.3,25.8,313.6,47.8l9.7,2
		l9.7,2.2c6.4,1.4,12.9,2.9,19.3,4.3c6.4,1.5,12.8,3.1,19.2,4.6l9.6,2.3l9.6,2.4c6.4,1.6,12.8,3.2,19.1,4.9
		c6.4,1.7,12.7,3.4,19.1,5.1l9.5,2.6l9.5,2.7c6.3,1.8,12.6,3.6,19,5.4c50.4,15,100.1,31.8,148.6,51.4c24.3,9.6,48.2,20.2,71.8,31.1
		c11.8,5.6,23.5,11.1,35.1,17.1l8.7,4.4c2.9,1.5,5.8,2.9,8.7,4.5c5.7,3.1,11.5,6.1,17.2,9.2l4.3,2.3c1.4,0.8,2.8,1.6,4.2,2.4
		l8.5,4.8l8.5,4.8l4.2,2.4c1.4,0.8,2.8,1.7,4.2,2.5c5.6,3.3,11.1,6.7,16.7,10l4.2,2.5c1.4,0.8,2.7,1.7,4.1,2.6l8.2,5.2l8.2,5.2
		l4.1,2.6c1.4,0.9,2.7,1.8,4.1,2.7c5.5,3.7,10.9,7.3,16.4,11l4.1,2.8c0.7,0.5,1.3,0.9,2,1.4l1.9,1.3l7.6,5.4l7.5,5.4l3.8,2.7
		c0.2,0.1,1.8,1.3,2.4,1.7l1.9,1.4c41.5,30.6,79.1,63.1,116,93.5c18.4,15.2,36.7,29.9,55.1,43.7l6.9,5.2l6.9,5l6.9,5
		c2.3,1.7,4.6,3.2,6.9,4.8c4.6,3.1,9.3,6.5,13.7,9.2l6.7,4.4l3.4,2.2l3.8,2.3c2.5,1.5,5.1,3.1,7.6,4.6l3.8,2.3
		c1.2,0.7,0.5,0.3,1.2,0.7l1.7,1l6.9,3.9c2.3,1.3,4.6,2.4,7,3.6c4.6,2.5,9.4,4.6,14.1,6.9c2.4,1.1,4.8,2.1,7.1,3.1
		c2.4,1,4.7,2.1,7.2,3c2.4,0.9,4.8,1.9,7.2,2.8c2.4,0.9,4.9,1.7,7.3,2.6l3.6,1.3l3.7,1.2c2.4,0.8,4.9,1.5,7.3,2.3
		c2.5,0.7,4.9,1.3,7.4,2c1.2,0.3,2.5,0.7,3.7,1l3.7,0.9c2.5,0.6,4.9,1.2,7.4,1.7c2.5,0.5,5,1,7.4,1.5c39.7,7.4,79.9,6.4,117.3-3.2
		c9.3-2.5,18.6-5.2,27.5-8.7c4.5-1.6,8.9-3.6,13.3-5.4c1.1-0.4,2.2-1,3.3-1.5l3.2-1.5l3.2-1.5l1.6-0.8l1.6-0.8
		c4.2-2.2,8.5-4.4,12.6-6.8c2.1-1.2,4.2-2.3,6.2-3.6c2-1.3,4-2.6,6-3.8c1-0.6,2-1.2,3-1.9l2.9-2c2-1.4,3.9-2.7,5.9-4.1l5.3-4l2.6-2
		c0.4-0.3,0.9-0.7,1.4-1.1l1.6-1.3c2.1-1.7,4.2-3.5,6.4-5.2l1.6-1.3c-0.8,0.7,0.5-0.5,0.6-0.6l2.6-2.3l5.1-4.6l4.8-4.8
		c3.3-3.1,6.2-6.6,9.3-9.9c1.6-1.6,2.9-3.5,4.4-5.2c1.4-1.7,2.9-3.5,4.3-5.2c11-14.3,20.2-29.8,27.5-46
		c7.2-16.2,12.3-33.2,15.6-50.4c0.5-2.1,0.7-4.3,1.1-6.5c0.3-2.2,0.7-4.3,1-6.5c0.2-2.2,0.4-4.3,0.7-6.5c0.2-2.2,0.5-4.3,0.6-6.5
		c0.2-4.3,0.6-8.6,0.5-13c0-2.2,0-4.3,0-6.5c-0.1-2.1-0.2-4.3-0.3-6.4c-0.1-4.3-0.6-8.5-0.9-12.8c-0.1-2.1-0.5-4.2-0.8-6.3
		c-0.3-2.1-0.6-4.2-0.9-6.3c-0.4-2.1-0.8-4.2-1.2-6.3l-0.6-3.1c-0.1-0.5-0.2-1-0.3-1.6l-0.4-1.5c-0.5-2.1-1-4.1-1.5-6.2
		c-0.3-1-0.5-2.1-0.7-3.1l-0.9-3c-4.6-16.2-10.9-31.7-18.7-46.1l-0.7-1.4l-0.8-1.3l-1.6-2.7c-1-1.8-2.1-3.5-3.1-5.3
		c-1.1-1.7-2.2-3.4-3.4-5.1c-1.1-1.7-2.2-3.5-3.3-5.1c-1.1-1.5-2.2-3-3.3-4.5l-1.6-2.2l-0.8-1.1c-0.3-0.4-0.7-0.9-1.1-1.4
		c-1.5-1.9-3.1-3.8-4.6-5.6l-2.3-2.8c0-0.1-1.5-1.9-0.4-0.5l-1-1.1c-1.3-1.4-2.6-2.9-3.9-4.3c-0.3-0.4-0.6-0.7-1-1.1l-1-1l-2-2l-2-2
		l-1-1l-1.1-0.9c-1.4-1.3-2.8-2.5-4.3-3.8l-1.1-1l-1.1-0.9l-2.2-1.8l-2.2-1.8l-1.1-0.9l-1.2-0.8c-1.5-1.1-3.1-2.2-4.6-3.3l-1.1-0.8
		l-1.2-0.7l-2.4-1.5c-12.6-8.1-26.1-14-39.9-18.8c-6.9-2.3-13.8-4.4-20.9-6l-2.6-0.6l-1.3-0.3l-1.3-0.2c-1.8-0.3-3.5-0.7-5.3-1
		l-1.3-0.3l-1.3-0.2l-2.7-0.4l-2.7-0.4c-0.9-0.2-1.8-0.3-2.7-0.4c-28.5-3.7-57.4-0.1-83.4,9.8c-1.6,0.6-3.2,1.3-4.9,1.9l-1.2,0.5
		l-1.2,0.5l-2.4,1.1c-1.6,0.7-3.2,1.4-4.7,2.1c-1.5,0.8-3.1,1.6-4.6,2.4c-3.1,1.5-6,3.3-9.1,5c-1.6,0.9-2.8,1.7-4.1,2.5
		c-1.3,0.8-2.6,1.6-3.9,2.5c-0.3,0.2-0.7,0.4-1.1,0.8l-1.2,0.9l-2.5,1.8l-2.5,1.8l-1.2,0.9c-1,0.8,0-0.1-0.4,0.3
		c-2.5,2.1-5.2,4-7.5,6.2l-1.8,1.6c-0.6,0.5-1.2,1.1-1.8,1.6c-1.2,1.1-2.3,2.3-3.5,3.4c-0.6,0.5-1.1,1.1-1.7,1.7l-1.6,1.8
		c-1.1,1.2-2.2,2.3-3.2,3.6c-1,1.2-2.1,2.5-3.1,3.7c-1,1.3-1.9,2.5-2.9,3.8l-1.4,1.9l-1.3,2c-0.9,1.3-1.8,2.6-2.7,4
		c-1.6,2.7-3.4,5.4-4.8,8.2l-1.1,2.1l-0.6,1l-0.5,1.1c-0.7,1.4-1.4,2.8-2.1,4.3c-0.7,1.4-1.2,2.9-1.9,4.3c-0.6,1.4-1.3,2.9-1.8,4.4
		c-0.5,1.5-1.1,3-1.6,4.4c-0.5,1.5-0.9,3-1.4,4.5l-0.7,2.2l-0.6,2.3c-0.4,1.5-0.8,3-1.2,4.5c-0.6,3.1-1.4,6.1-1.8,9.2
		c-4.2,24.5-1.6,49.4,6.2,71.7c0.4,1.4,1,2.8,1.5,4.1c0.5,1.4,1,2.8,1.6,4.1c0.6,1.3,1.2,2.7,1.8,4l0.9,2c0.3,0.7,0.7,1.3,1,2
		c0.7,1.3,1.3,2.6,2,3.9l0.5,1l0.5,0.9l1.1,1.9c0.7,1.3,1.4,2.5,2.2,3.8c0.7,1.1,1.4,2.2,2.1,3.4l1.1,1.7c0.2,0.3,0.3,0.6,0.5,0.9
		l0.7,1c1,1.3,1.9,2.7,2.9,4l1.5,2c-0.5-0.6,0.2,0.3,0.3,0.4l0.6,0.8c0.9,1.1,1.7,2.2,2.6,3.2c1.8,2,3.5,4.2,5.5,6.1
		c1,1,1.9,2,2.9,2.9c1,0.9,2,1.8,3,2.8c4,3.6,8.2,6.9,12.6,9.9c2.2,1.6,4.5,2.8,6.7,4.2c1.2,0.6,2.3,1.3,3.4,1.9l1.7,1l1.8,0.9
		c1.2,0.6,2.3,1.1,3.5,1.7c1.2,0.5,2.4,1,3.6,1.5c0.6,0.3,1.2,0.5,1.8,0.8l1.8,0.7c1.2,0.4,2.4,0.9,3.6,1.3c1.2,0.4,2.4,0.8,3.7,1.2
		c0.6,0.2,1.2,0.4,1.8,0.6l1.8,0.5c1.2,0.3,2.5,0.7,3.7,1c1.2,0.3,2.5,0.5,3.7,0.8c19.8,4.1,39.7,3,57.5-2c8.9-2.5,17.3-5.9,25.1-10
		c1.9-1,3.8-2.2,5.7-3.2c1.8-1.1,3.5-2.2,5.2-3.3c1.8-1.3,3.7-2.7,5.6-4c0.4-0.3,0.2-0.1,0.5-0.3l0.6-0.5l1.2-1
		c0.8-0.6,1.6-1.2,2.4-1.9c12.4-10.5,21.5-23.2,27.2-36.2c5.8-13,8.4-26,8.9-37.8c0.5-11.8-1-22.4-3.3-31.3
		c-2.3-8.9-5.3-16.1-8.2-21.7c-0.4-0.7-0.7-1.4-1-2.1c-0.3-0.7-0.7-1.3-1.1-1.9c-0.7-1.2-1.3-2.3-1.9-3.4c-1.3-2-2.3-3.7-3.3-5.1
		C3766.1,1938.5,3765.1,1937.2,3765.1,1937.2z"/>
</g>
<g class="st1">
	<path class="st2" d="M2616,1874.2c0,0-2.3,0-6.9,0.1c-2.3,0-5.1,0.1-8.4,0.1c-1.7,0-3.5,0.1-5.4,0.1c-0.5,0-1,0-1.5,0
		c-0.5,0-0.9,0-1.4,0.1c-0.9,0-1.9,0.1-2.9,0.1c-4,0.2-8.5,0.4-13.5,0.6c-0.6,0-1.2,0-1.9,0.1c-0.6,0-1.3,0.1-2,0.1
		c-1.3,0.1-2.7,0.2-4,0.3c-2.8,0.2-5.6,0.4-8.6,0.6c-1.5,0.1-3,0.2-4.6,0.3c-1.5,0.1-3.1,0.3-4.7,0.4c-3.2,0.3-6.5,0.6-9.8,0.9
		c-3.4,0.3-6.9,0.7-10.4,1.2c-3.6,0.4-7.2,0.9-11,1.4c-14.9,2.3-31.4,5.1-48.9,9.3c-17.5,4.3-36,9.9-55.3,17.3
		c-19.3,7.4-39.5,16.7-60.3,28.2c-20.8,11.4-42.4,24.9-64.7,40.1c-22.3,15.3-45.5,32.1-69.6,49.9c-24.1,17.8-49.1,36.7-75.2,55.9
		c-13,9.5-26.1,19.1-39.4,28.8c-1.7,1.2-3.3,2.4-5,3.7l-2.5,1.8l-2.3,1.8c-3.1,2.4-6.2,4.7-9.3,7.1c-6.3,5-12.7,10-19.1,15.2
		c-25.7,20.6-52.2,43-80.7,65.3c-14.3,11.1-29.1,22.2-44.7,32.9c-3.9,2.6-7.9,5.3-11.8,8c-4,2.6-8.1,5.1-12.1,7.7l-3.1,1.9l-3.1,1.9
		c-2.1,1.2-4.2,2.5-6.3,3.7l-3.1,1.9l-1.6,0.9l-1.4,0.8l-0.7,0.4l-5.9,3.2c-18.1,9.9-36.8,18-56.4,24.6
		c-19.5,6.7-39.9,11.4-60.7,14.4c-2.6,0.4-5.2,0.7-7.8,1c-2.6,0.3-5.2,0.6-7.9,0.8c-5.3,0.4-10.5,0.9-15.8,1
		c-10.6,0.5-21.2,0.2-31.8-0.5c-21.2-1.5-42.5-5.1-63-11.2c-10.3-2.9-20.4-6.6-30.3-10.6l-7.4-3.2c-1.2-0.5-2.5-1-3.7-1.6l-3.6-1.7
		c-2.4-1.2-4.8-2.3-7.2-3.5l-7.1-3.8l-3.5-1.9l-3.5-2l-6.9-4.1c-2.3-1.4-4.5-2.9-6.7-4.3c-2.2-1.4-4.5-2.9-6.6-4.4l-6.5-4.6
		c-1.1-0.8-2.1-1.6-3.2-2.4l-3.1-2.4c-2.1-1.6-4.2-3.2-6.2-4.9l-6.1-5.1l-1.5-1.3l-0.8-0.6c0.4,0.3-1.4-1.2-1.4-1.2l-2.6-2.4
		l-5.2-4.8l-0.7-0.6l-0.8-0.8l-1.5-1.5l-3.1-3.1l-3.1-3.1l-1.5-1.6l-1.4-1.5c-3.6-4.1-7.3-8-10.6-12.4l-5.1-6.4l-4.8-6.6
		c-12.7-17.6-22.9-36.9-30.8-57l-1.5-3.8l-1.3-3.8l-2.6-7.6c-0.8-2.6-1.5-5.2-2.3-7.7c-0.8-2.6-1.5-5.2-2.1-7.8l-1.9-7.8
		c-0.6-2.6-1-5.3-1.6-7.9l-0.7-4l-0.4-2l-0.3-2l-1.1-8c-0.4-2.6-0.6-5.3-0.8-8c-0.2-2.7-0.5-5.3-0.7-8l-0.3-8c0-1.3-0.1-2.7-0.1-4
		l0-4l0.1-8l0.4-8l0.2-4c0.1-1.3,0.3-2.6,0.4-4l0.8-7.9c2.6-21,7.8-41.7,15.2-61.3c7.5-19.6,17.4-38.1,29.2-55.1
		c1.4-2.2,3-4.2,4.5-6.3l4.6-6.2c1.6-2,3.3-4,4.9-5.9l2.5-2.9l1.2-1.5c0.1-0.1,1.4-1.6,1.1-1.3l0.6-0.6l4.6-4.9
		c0.7-0.7,1.8-1.8,2.7-2.8l3-3l3-3c1-0.9,2-1.8,3-2.7c2-1.7,3.9-3.5,5.9-5.2c8.1-6.7,16.6-12.8,25.4-18.2
		c8.9-5.4,18.1-10.1,27.6-14.1c9.5-4,19.2-7.2,29-9.9c9.9-2.5,19.8-4.3,29.8-5.5c10-1,20-1.5,29.9-1.2c9.9,0.4,19.8,1.3,29.5,2.9
		c19.3,3.4,38,9.3,55.3,17.6c4.4,2,8.5,4.4,12.7,6.6c2.1,1.2,4.1,2.4,6.1,3.7l3,1.8c1,0.6,2,1.3,2.9,2c1.9,1.3,3.9,2.6,5.8,4
		c1.9,1.4,3.8,2.8,5.6,4.2l2.8,2.1c0.9,0.7,1.8,1.5,2.7,2.2c1.8,1.5,3.6,3,5.3,4.5c0.5,0.4-0.1-0.1,1.2,1l0.6,0.5l1.1,1l2.2,2l1.1,1
		c0.2,0.2,0.3,0.3,0.6,0.5l0.7,0.7l2.7,2.7l2.7,2.8c0.9,0.9,1.6,1.8,2.4,2.7c1.5,1.8,3.2,3.5,4.6,5.4c6,7.3,11.3,15,16,23.1
		c9.4,16,15.7,33.4,19.5,50.9c3.6,17.5,4.5,35.2,2.7,52.3c-0.4,4.3-1.1,8.5-1.7,12.7c-0.8,4.2-1.6,8.3-2.7,12.4l-0.8,3.1
		c-0.3,1-0.6,2-0.9,3c-0.6,2-1.2,4-1.9,6c-0.7,2-1.4,3.9-2.1,5.9c-0.3,1-0.7,1.9-1.1,2.9l-1.2,2.9l-1.2,2.8
		c-0.4,0.9-0.9,1.9-1.3,2.8c-0.9,1.8-1.7,3.7-2.7,5.5c-1.9,3.6-3.8,7.2-5.9,10.6c-2,3.5-4.3,6.8-6.5,10c-1.1,1.6-2.4,3.2-3.5,4.8
		c-1.2,1.6-2.4,3.1-3.6,4.6c-1.3,1.5-2.5,3-3.8,4.5c-0.3,0.4,0.1-0.1-0.9,1l-0.4,0.5l-0.9,0.9l-1.7,1.8l-0.9,0.9
		c-0.1,0.1-0.3,0.3-0.5,0.5l-0.6,0.6l-2.3,2.3l-2.3,2.2l-2.2,2c-5.9,5.2-12.2,9.9-18.8,13.9c-6.6,4-13.4,7.4-20.3,10.2
		c-1.7,0.7-3.5,1.3-5.2,2c-1.8,0.6-3.5,1.1-5.3,1.7c-1.7,0.6-3.5,1-5.3,1.5l-2.6,0.7l-2.6,0.6c-7,1.6-14.1,2.5-21,2.9
		c-1.7,0.1-3.5,0.2-5.2,0.2c-1.7,0-3.4,0.1-5.1,0c-1.7-0.1-3.4-0.1-5.1-0.2c-1.7-0.1-3.4-0.3-5-0.4c-1.7-0.1-3.3-0.4-5-0.6
		c-1.6-0.2-3.3-0.4-4.9-0.8c-1.6-0.3-3.2-0.6-4.8-0.9c-1.6-0.4-3.2-0.7-4.7-1.1c-1.6-0.3-3.1-0.8-4.6-1.3c-1.5-0.5-3.1-0.9-4.6-1.4
		c-1.5-0.5-3-1-4.5-1.5c-1.5-0.6-2.9-1.2-4.3-1.7c-11.5-4.7-21.7-11-30.6-17.9c-4.4-3.6-8.5-7.2-12.2-11.1l-1.2-1.3l-1.5-1.6
		c-1-1.1-2-2.2-2.8-3.3c-1.7-2.1-3.4-4.2-4.8-6.3c-1.6-2.1-2.9-4.3-4.2-6.5c-1.3-2.2-2.5-4.4-3.6-6.6c-2.2-4.4-4-8.9-5.5-13.3
		c-2.9-8.8-4.5-17.5-5-25.6c-0.5-8.1,0-15.6,1.2-22.5c2.4-13.7,7.2-24.4,12-32.2c4.8-7.9,9.5-13,12.8-16.3c1.6-1.7,3-2.8,3.8-3.6
		c0.9-0.8,1.3-1.2,1.3-1.2s-0.3,0.5-0.9,1.5c-0.6,1-1.5,2.5-2.5,4.5c-1.1,2-2.3,4.5-3.5,7.6c-0.6,1.5-1.3,3.1-1.9,4.9
		c-0.3,0.9-0.7,1.8-1,2.7c-0.3,1-0.6,1.9-0.9,3c-1.1,4.1-2.2,8.6-2.8,13.7c-0.6,5.1-0.9,10.5-0.6,16.4c0.3,5.8,1.3,12,3,18.3
		c0.8,3.2,1.9,6.3,3.2,9.5c0.7,1.6,1.3,3.2,2.1,4.7c0.4,0.8,0.7,1.6,1.1,2.4c0.4,0.8,0.8,1.6,1.3,2.3c1.8,3.1,3.7,6.2,5.9,9.1
		c1.1,1.5,2.3,2.9,3.5,4.4c1.3,1.4,2.5,2.8,3.9,4.2c1.3,1.4,2.8,2.7,4.2,4c0.7,0.6,1.4,1.1,2.1,1.7l1,0.9l1.4,1.1
		c3.2,2.5,6.8,4.8,10.4,6.9c3.7,2.1,7.5,4.1,11.5,5.7c2,0.9,4.1,1.6,6.1,2.4c1,0.4,2.1,0.7,3.2,1l1.6,0.5c0.5,0.2,1.1,0.3,1.6,0.4
		c8.6,2.4,17.7,3.7,27.1,3.6c18.7-0.1,38.5-5.6,55.2-17.3c4.2-2.9,8.1-6.2,11.9-9.8l1.4-1.3l1.2-1.3l1.2-1.2l0.3-0.3
		c0.1-0.1,0.2-0.2,0.3-0.4l0.8-0.9l1.6-1.9l0.8-0.9l0.4-0.5c-0.7,0.8,0,0-0.1,0c0.9-1.1,1.7-2.2,2.6-3.3c0.9-1.1,1.7-2.3,2.5-3.4
		c0.8-1.2,1.7-2.3,2.4-3.5c1.5-2.4,3-4.8,4.4-7.3c1.5-2.4,2.6-5.1,3.9-7.6c0.6-1.3,1.1-2.6,1.7-4c0.3-0.7,0.6-1.3,0.8-2l0.8-2l0.8-2
		c0.3-0.7,0.5-1.4,0.7-2.1c0.4-1.4,0.9-2.8,1.3-4.2c0.4-1.4,0.8-2.8,1.2-4.2c0.2-0.7,0.4-1.4,0.6-2.1l0.5-2.2
		c0.7-2.9,1.1-5.8,1.6-8.7c0.3-3,0.7-5.9,0.9-8.9c0.9-12-0.3-24.3-3.2-36.3c-5.9-24-19.7-46.6-40-63c-1.3-1-2.7-2.1-4-3.1
		c-0.7-0.5-1.3-1.1-2-1.6l-2.1-1.5c-1.4-1-2.8-2-4.2-2.9c-1.4-0.9-2.9-1.8-4.3-2.7c-0.7-0.5-1.4-0.9-2.2-1.4l-2.2-1.3
		c-1.5-0.8-3-1.7-4.5-2.5c-3.1-1.5-6.1-3.2-9.3-4.5c-12.6-5.6-26.2-9.4-40.1-11.4c-7-1-14.1-1.4-21.2-1.4
		c-7.1,0.1-14.2,0.6-21.3,1.6c-7.1,1.1-14.1,2.6-21,4.6c-6.9,2.1-13.7,4.6-20.2,7.6c-6.5,3.1-12.9,6.6-19,10.5
		c-6,4.1-11.8,8.5-17.3,13.3c-1.4,1.2-2.7,2.5-4,3.7c-0.7,0.6-1.4,1.3-2,1.9l-1.7,1.8l-1.7,1.8c-0.6,0.6-1.1,1.1-1.9,2l-4.4,5.1
		l-0.6,0.6c-0.7,0.8,0.3-0.3,0,0l-0.9,1.1l-1.8,2.3c-1.2,1.5-2.4,3-3.6,4.5l-3.3,4.7c-1.1,1.6-2.3,3.1-3.2,4.8
		c-8.4,12.9-15.3,26.8-20.5,41.4c-5,14.6-8.4,29.9-9.9,45.5l-0.4,5.8c-0.1,1-0.2,1.9-0.2,2.9l-0.1,2.9l-0.2,5.9l0.1,5.9l0.1,2.9
		c0,1,0.1,2,0.2,2.9l0.4,5.8c0.1,1.9,0.4,3.9,0.7,5.8c0.3,1.9,0.4,3.9,0.8,5.8l1,5.8l0.2,1.4l0.3,1.4l0.6,2.9
		c0.4,1.9,0.8,3.8,1.3,5.7l1.5,5.7c0.5,1.9,1.1,3.8,1.7,5.6l1.8,5.6l2.1,5.5l1,2.8l1.2,2.7c6.1,14.4,13.8,28.1,23.3,40.6l3.5,4.7
		l3.8,4.5c2.4,3.1,5.2,5.8,7.9,8.7l1,1.1l1,0.9l1.9,1.8l1.9,1.8l0.9,0.9l0.5,0.5c0.2,0.2,0.4,0.4,0.6,0.6l5.3,4.6l2.6,2.3
		c0.4,0.3-0.9-0.8-0.1-0.1l0.6,0.5l1.2,0.9l4.8,3.8c1.6,1.3,3.3,2.4,4.9,3.6c1.6,1.2,3.2,2.4,4.9,3.5l5,3.4c1.6,1.2,3.4,2.2,5.1,3.2
		l5.1,3.2l5.2,2.9l2.6,1.5l2.7,1.4l5.3,2.7l5.4,2.5l2.7,1.2c0.9,0.4,1.8,0.8,2.8,1.1l5.5,2.3c7.4,2.8,14.9,5.4,22.6,7.3
		c15.2,4.2,30.9,6.4,46.7,7.2c7.9,0.2,15.8,0.4,23.6-0.2c3.9-0.1,7.9-0.6,11.8-1c2-0.2,3.9-0.5,5.9-0.7c2-0.3,3.9-0.5,5.9-0.8
		c15.6-2.5,31-6.4,45.9-11.8c14.9-5.3,29.4-12,42.8-19.7c28.5-16.3,55.5-36.3,81.9-57.5c13.2-10.6,26.3-21.6,39.3-32.6
		c13.1-11,26.2-22.2,39.5-33.2c6.6-5.5,13.4-10.9,20.1-16.3c3.5-2.7,7-5.5,10.5-8.2l2.6-2l2.5-1.9c1.6-1.2,3.3-2.5,4.9-3.7
		c13.2-9.9,26.2-19.7,39.1-29.3c25.6-19.4,50.4-38.3,74.5-56.6c24.3-18.4,48.2-36.1,72.1-52.6c23.9-16.5,47.9-31.7,71.8-45
		c23.9-13.3,47.8-24.5,71-33.4c23.2-9,45.5-15.7,66.3-20.8c20.8-5,40.1-8.3,57.5-10.8c4.3-0.5,8.6-1.1,12.7-1.6
		c4.1-0.5,8.1-1,12-1.3c3.9-0.4,7.6-0.7,11.2-1c1.8-0.2,3.6-0.3,5.3-0.5c1.7-0.1,3.5-0.2,5.1-0.3c3.4-0.2,6.6-0.4,9.7-0.6
		c1.6-0.1,3.1-0.2,4.6-0.3c0.7,0,1.5-0.1,2.2-0.1c0.7,0,1.5-0.1,2.2-0.1c5.8-0.2,11.1-0.4,15.8-0.5c1.2,0,2.3-0.1,3.4-0.1
		c0.6,0,1.1,0,1.6-0.1c0.5,0,1,0,1.5,0c1.9,0,3.7,0,5.4,0c3.3,0,6.2,0,8.4-0.1c4.5,0,6.9-0.1,6.9-0.1L2616,1874.2z"/>
</g>
<rect class="st3" width="4096" height="4096"/>
</svg>
